<?xml version="1.0" encoding="utf-8"?>
<!-- Generator: Adobe Illustrator 23.0.3, SVG Export Plug-In . SVG Version: 6.00 Build 0)  -->
<svg version="1.1" xmlns="http://www.w3.org/2000/svg" xmlns:xlink="http://www.w3.org/1999/xlink" x="0px" y="0px"
	 viewBox="260 220 95 95" xml:space="preserve">
<style type="text/css">
	.st0{fill:#FF5500;}
	.st1{display:none;fill:#FF5500;}
	.st2{font-family:'Nunito-BlackItalic';}
	.st3{font-size:30.8584px;}
</style>
<g id="Capa_1">
</g>
<g id="Capa_2">
	<g>
		<path class="st0" d="M293.58,303.74c-5.22-0.27-10.38-0.58-15.3-2.43c-2.95-1.11-5.6-2.7-7.22-5.53
			c-0.53-0.93-0.89-2.03-1.08-3.09c-0.28-1.6,0.8-3.02,2.29-3.31c1.56-0.3,3.12,0.5,3.46,2.07c0.41,1.89,1.68,2.89,3.22,3.66
			c3.66,1.82,7.63,2.21,11.62,2.38c7.75,0.32,15.42-0.63,23.02-1.98c7.84-1.39,15.63-3.06,23.43-4.66c1.87-0.38,3.69-0.96,5.55-1.39
			c2.45-0.57,4.31,1.04,3.92,3.36c-0.27,1.59-1.46,2.19-2.85,2.52c-4.08,0.98-8.13,2.08-12.25,2.88
			c-7.36,1.43-14.74,2.81-22.15,3.93C304.06,302.92,298.81,303.22,293.58,303.74z"/>
		<path class="st0" d="M291.46,278.7c0.02,2.86-2.28,5.16-5.16,5.16c-2.86-0.01-5.19-2.32-5.19-5.16c0-2.81,2.37-5.17,5.2-5.2
			C289.13,273.48,291.44,275.82,291.46,278.7z"/>
		<path class="st0" d="M330.69,277.23c1.14,0,2.29,0,3.43,0c1.04,0,1.4,0.6,1.38,1.56c-0.01,0.97-0.51,1.38-1.43,1.38
			c-2.33,0-4.66,0-6.99,0.01c-1.02,0-1.45-0.52-1.46-1.5c-0.01-1.02,0.53-1.46,1.5-1.46C328.32,277.22,329.51,277.22,330.69,277.23
			C330.69,277.22,330.69,277.22,330.69,277.23z"/>
		<path class="st0" d="M269.26,253.11h-4.36c-0.53,0-0.97-0.44-0.97-0.97v-13.09c0-0.53,0.44-0.97,0.97-0.97h4.36
			c0.53,0,0.97,0.44,0.97,0.97v13.09C270.23,252.67,269.79,253.11,269.26,253.11z"/>
		<path class="st0" d="M351.88,253.11h-4.36c-0.53,0-0.97-0.44-0.97-0.97v-13.09c0-0.53,0.44-0.97,0.97-0.97h4.36
			c0.53,0,0.97,0.44,0.97,0.97v13.09C352.85,252.67,352.41,253.11,351.88,253.11z"/>
		<path class="st0" d="M344.49,234.67c-3.61-6.51-21.43-9.98-36.16-10.24c-1.99-0.03-28.76-0.02-35.83,11.13c0,0-0.14,21.62,0,22.55
			c0.12,0.74,0.93,2.46,2.14,3.01c4.77,2.19,9.58,4.39,14.27,6.76c7.71,3.89,12.8,10.14,15.77,18.17c0.62,1.67,1.08,3.41,1.84,5
			c0.33,0.69,1.24,1.52,1.9,1.53c0.65,0.01,1.54-0.81,1.91-1.49c0.64-1.18,0.98-2.52,1.41-3.8c2.95-8.74,8.27-15.49,16.62-19.63
			c4.59-2.28,9.24-4.46,13.9-6.58c1.29-0.59,1.91-1.49,2.1-2.78C345.33,251.52,344.49,234.67,344.49,234.67z M292.94,228.51h31.39
			c0.76,0,1.37,0.62,1.37,1.37c0,0.76-0.62,1.37-1.37,1.37h-31.39c-0.76,0-1.37-0.62-1.37-1.37
			C291.57,229.13,292.19,228.51,292.94,228.51z M336.52,258.28c-3.94,0.03-7.89,0.01-11.83,0.01c-3.82,0-7.63,0.02-11.45,0
			c-1.71-0.01-8.02,0.01-9.89,0.02c-3.73,0-7.46,0-11.2,0c-3.82,0-7.63,0.01-11.45-0.01c-2.67-0.02-3.57-1.37-3.1-4.55
			c0.76-5.15,1.5-10.3,2.29-15.45c0.42-2.74,1.27-3.6,3.52-3.61c6.79-0.01,13.57-0.01,20.36,0c1.68,0,7.64,0,9.34,0
			c6.83-0.01,13.65-0.01,20.48,0c2,0,2.97,0.92,3.34,3.33c0.86,5.54,1.68,11.09,2.48,16.65
			C339.72,256.74,338.5,258.26,336.52,258.28z"/>
		<text transform="matrix(1 0 0 1 213.574 344.3025)" class="st1 st2 st3">SANTARELLI </text>
	</g>
</g>
</svg>
